<?xml version="1.0" encoding="UTF-8"?>
<svg width="36px" height="36px" viewBox="0 0 36 36" version="1.1" xmlns="http://www.w3.org/2000/svg" xmlns:xlink="http://www.w3.org/1999/xlink">
    <!-- Generator: Sketch 61 (89581) - https://sketch.com -->
    <title>画板备份@1x</title>
    <desc>Created with Sketch.</desc>
    <g id="画板备份" stroke="none" stroke-width="1" fill="none" fill-rule="evenodd">
        <g id="已审批">
            <g id="编组-4" transform="translate(6.000000, 10.000000)" fill="#F64D5A">
                <path d="M7.36396103,0.292893219 C7.75448532,0.683417511 7.75448532,1.31658249 7.36396103,1.70710678 L3.82842712,5.24264069 C3.67822547,5.39284234 3.49213023,5.48527412 3.29775185,5.51993604 L3.18035173,5.53380081 L3.06228896,5.53380081 C2.8263843,5.51993604 2.59445554,5.42288267 2.41421356,5.24264069 L0.292893219,3.12132034 C-0.0976310729,2.73079605 -0.0976310729,2.09763107 0.292893219,1.70710678 C0.683417511,1.31658249 1.31658249,1.31658249 1.70710678,1.70710678 L3.121,3.121 L5.94974747,0.292893219 C6.34027176,-0.0976310729 6.97343674,-0.0976310729 7.36396103,0.292893219 Z" id="路径"></path>
                <path d="M7.36396103,7.79289322 C7.75448532,8.18341751 7.75448532,8.81658249 7.36396103,9.20710678 L3.82842712,12.7426407 C3.67822547,12.8928423 3.49213023,12.9852741 3.29775185,13.019936 L3.18035173,13.0338008 L3.06228896,13.0338008 C2.8263843,13.019936 2.59445554,12.9228827 2.41421356,12.7426407 L0.292893219,10.6213203 C-0.0976310729,10.2307961 -0.0976310729,9.59763107 0.292893219,9.20710678 C0.683417511,8.81658249 1.31658249,8.81658249 1.70710678,9.20710678 L3.121,10.621 L5.94974747,7.79289322 C6.34027176,7.40236893 6.97343674,7.40236893 7.36396103,7.79289322 Z" id="路径备份"></path>
                <path d="M7.36396103,15.2928932 C7.75448532,15.6834175 7.75448532,16.3165825 7.36396103,16.7071068 L3.82842712,20.2426407 C3.67822547,20.3928423 3.49213023,20.4852741 3.29775185,20.519936 L3.18035173,20.5338008 L3.06228896,20.5338008 C2.8263843,20.519936 2.59445554,20.4228827 2.41421356,20.2426407 L0.292893219,18.1213203 C-0.0976310729,17.7307961 -0.0976310729,17.0976311 0.292893219,16.7071068 C0.683417511,16.3165825 1.31658249,16.3165825 1.70710678,16.7071068 L3.121,18.121 L5.94974747,15.2928932 C6.34027176,14.9023689 6.97343674,14.9023689 7.36396103,15.2928932 Z" id="路径备份"></path>
            </g>
            <path d="M3,36 C1.34314575,36 2.02906125e-16,34.6568542 0,33 L0,5 C-2.02906125e-16,3.34314575 1.34314575,2 3,2 L7,2 C7.55228475,2 8,2.44771525 8,3 C8,3.51283584 7.61395981,3.93550716 7.11662113,3.99327227 L7,4 L3,4 C2.48716416,4 2.06449284,4.38604019 2.00672773,4.88337887 L2,5 L2,33 C2,33.5128358 2.38604019,33.9355072 2.88337887,33.9932723 L3,34 L18,34 C18.5522847,34 19,34.4477153 19,35 C19,35.5522847 18.5522847,36 18,36 L18,36 L3,36 Z M19,27 C19.5522847,27 20,27.4477153 20,28 C20,28.5522847 19.5522847,29 19,29 L16,29 C15.4477153,29 15,28.5522847 15,28 C15,27.4477153 15.4477153,27 16,27 L19,27 Z M22,19 C22.5522847,19 23,19.4477153 23,20 C23,20.5522847 22.5522847,21 22,21 L16,21 C15.4477153,21 15,20.5522847 15,20 C15,19.4477153 15.4477153,19 16,19 L22,19 Z M29,2 C30.6568542,2 32,3.34314575 32,5 L32,16 C32,16.5522847 31.5522847,17 31,17 C30.4477153,17 30,16.5522847 30,16 L30,16 L30,5 C30,4.44771525 29.5522847,4 29,4 L25,4 L24.8833789,3.99327227 C24.3860402,3.93550716 24,3.51283584 24,3 C24,2.48716416 24.3860402,2.06449284 24.8833789,2.00672773 L25,2 L29,2 Z M25,12 C25.5522847,12 26,12.4477153 26,13 C26,13.5522847 25.5522847,14 25,14 L16,14 C15.4477153,14 15,13.5522847 15,13 C15,12.4477153 15.4477153,12 16,12 L25,12 Z M20,0 C21.6568542,-3.04359188e-16 23,1.34314575 23,3 C23,4.65685425 21.6568542,6 20,6 L12,6 C10.3431458,6 9,4.65685425 9,3 C9,1.34314575 10.3431458,3.04359188e-16 12,0 L20,0 Z M20,2 L12,2 C11.4477153,2 11,2.44771525 11,3 C11,3.51283584 11.3860402,3.93550716 11.8833789,3.99327227 L12,4 L20,4 C20.5522847,4 21,3.55228475 21,3 C21,2.44771525 20.5522847,2 20,2 Z" id="形状结合" fill="#F42434" fill-rule="nonzero"></path>
            <g id="审批-(1)" transform="translate(21.000000, 18.000000)" fill="#F42434">
                <rect id="矩形" x="0" y="16" width="15" height="2" rx="1"></rect>
                <path d="M0,14.4582153 C0,14.757622 0.253273648,15 0.565606625,15 L14.4343934,15 C14.7452591,15.0006083 14.9981242,14.7583938 15,14.4582153 L15,11.2963492 C15,10.3005204 14.1527258,9.49003858 13.1123731,9.49003858 L9.7681053,9.49003858 L9.7862774,9.38365599 C9.92597542,8.55233634 10.2780599,7.84494695 10.8357162,7.28013214 C11.6386959,6.41591066 12.0646045,5.33673055 12.0339391,4.24548644 C12.0010021,2.03777346 10.0145644,0.0943718633 7.69535009,0.0011500106 C7.64992661,0.000218350409 7.60449258,-9.09494702e-13 7.55905933,-9.09494702e-13 C6.32335649,-9.09494702e-13 5.21712988,0.419003276 4.35963388,1.209744 C3.46801892,2.02245009 2.96371865,3.15474643 2.96606092,4.33870829 C2.96606092,5.4058244 3.3692544,6.42907141 4.10068145,7.2187154 C4.70036076,7.8942997 5.08424639,8.64336477 5.2137226,9.38365599 L5.2318947,9.49003858 L1.88762693,9.49003858 C0.847274181,9.49003858 0,10.3005204 0,11.2963492 L0,14.4582153 Z M2.65143934,11.1331395 L6.18,11.1331395 C6.44756518,11.134181 6.65838385,10.9268599 6.66,10.669742 C6.66,9.59067452 6.11593592,7.51160702 5.30212581,6.63086987 C4.83336066,6.12336232 4.57323426,5.46902379 4.57047923,4.7904394 C4.57047923,4.03565613 4.90206772,3.30343175 5.47916864,2.78175713 C6.03279427,2.25444278 6.80258821,1.97621632 7.61639832,2.00159509 C9.13740158,2.05799234 10.3991985,3.28275276 10.4295208,4.73404215 C10.4295208,5.4813058 10.1478173,6.17405209 9.63820782,6.68726712 C8.86352318,7.47682871 8.34,9.53709713 8.34,10.6688021 C8.34,10.9254096 8.55199043,11.1331395 8.82,11.1331395 L12.3485607,11.1331395 C12.707537,11.1331395 13,11.4113659 13,11.7535093 L13,13 L2,13 L2,11.7535093 C2,11.411366 2.29246302,11.1331395 2.65143934,11.1331395 Z" id="形状" fill-rule="nonzero"></path>
            </g>
        </g>
    </g>
</svg>